<?xml version="1.0" encoding="utf-8"?>
<!-- Generator: Adobe Illustrator 25.2.3, SVG Export Plug-In . SVG Version: 6.00 Build 0)  -->
<svg version="1.1" id="Layer_1" xmlns="http://www.w3.org/2000/svg" xmlns:xlink="http://www.w3.org/1999/xlink" x="0px" y="0px"
	 viewBox="0 0 176.3 62.9" style="enable-background:new 0 0 176.3 62.9;" xml:space="preserve">
<style type="text/css">
	.st0{fill:#3B479D;}
	.st1{fill-rule:evenodd;clip-rule:evenodd;fill:#3B479D;}
</style>
<g>
	<g>
		<g>
			<path class="st0" d="M87.4,12.3c0-1.9,0.4-3.4,1.2-4.4c0.8-1,1.9-1.5,3.3-1.5c1.4,0,2.5,0.5,3.3,1.5c0.8,1,1.2,2.5,1.2,4.4
				c0,1.9-0.4,3.4-1.2,4.4c-0.8,1-1.9,1.5-3.3,1.5c-1.4,0-2.5-0.5-3.3-1.5C87.8,15.7,87.4,14.2,87.4,12.3z M88.6,12.3
				c0,1.6,0.3,2.9,0.9,3.7s1.4,1.2,2.4,1.2s1.8-0.4,2.4-1.2s0.9-2,0.9-3.7s-0.3-2.9-0.9-3.7s-1.4-1.2-2.4-1.2s-1.8,0.4-2.4,1.2
				C88.9,9.4,88.6,10.6,88.6,12.3z"/>
			<path class="st0" d="M98.3,9.7h1.1v1.7h0c0.2-0.3,0.3-0.5,0.5-0.8c0.2-0.2,0.4-0.4,0.6-0.6c0.2-0.2,0.4-0.3,0.7-0.3
				c0.3-0.1,0.6-0.1,0.9-0.1v1.2c-0.7,0-1.3,0.3-1.7,0.7s-0.8,1.1-1,2V18h-1.1L98.3,9.7L98.3,9.7z"/>
			<path class="st0" d="M110.2,10.5c-0.2,0-0.5,0-0.7,0.1c-0.2,0-0.4,0.1-0.6,0.2c0.1,0.2,0.2,0.4,0.4,0.7c0.1,0.3,0.2,0.6,0.2,1
				c0,0.4-0.1,0.8-0.2,1.2s-0.4,0.7-0.6,0.9c-0.3,0.3-0.6,0.5-1,0.6c-0.4,0.2-0.8,0.2-1.2,0.2c-0.3,0-0.6,0-0.8-0.1
				c-0.2,0-0.4-0.1-0.6-0.2c-0.4,0.1-0.7,0.4-0.7,0.8c0,0.2,0.1,0.3,0.2,0.4s0.3,0.2,0.5,0.2c1,0,1.8,0.1,2.5,0.1s1.2,0.2,1.6,0.4
				c0.4,0.2,0.7,0.4,0.9,0.7c0.2,0.3,0.3,0.6,0.3,1.1c0,0.3-0.1,0.6-0.2,0.9c-0.1,0.3-0.4,0.5-0.7,0.7s-0.7,0.4-1.2,0.5
				c-0.5,0.1-1,0.2-1.7,0.2c-1.2,0-2.1-0.2-2.7-0.5c-0.6-0.3-0.9-0.8-0.9-1.5c0-0.4,0.1-0.7,0.4-1c0.2-0.2,0.6-0.5,1-0.7
				c-0.3-0.1-0.6-0.3-0.8-0.5c-0.2-0.2-0.3-0.5-0.3-0.7c0-0.4,0.1-0.6,0.3-0.8s0.5-0.4,0.8-0.6c-0.4-0.3-0.7-0.6-0.9-1
				c-0.2-0.4-0.3-0.8-0.3-1.3c0-0.4,0.1-0.8,0.2-1.2s0.4-0.7,0.7-0.9c0.3-0.3,0.6-0.4,1-0.6s0.8-0.2,1.2-0.2s0.8,0.1,1.2,0.1
				c0.3,0.1,0.6,0.2,0.9,0.4c0.2-0.2,0.5-0.3,0.9-0.5c0.3-0.1,0.6-0.2,0.9-0.3L110.2,10.5L110.2,10.5z M109.1,18.9
				c0-0.4-0.2-0.7-0.7-0.9c-0.4-0.2-1.2-0.3-2.2-0.3c-0.4,0-0.8,0.1-1.1,0.1c-0.3,0.1-0.5,0.2-0.7,0.3c-0.2,0.1-0.3,0.3-0.4,0.4
				c-0.1,0.2-0.1,0.3-0.1,0.5c0,0.2,0,0.3,0.1,0.4c0.1,0.1,0.2,0.2,0.4,0.3c0.2,0.1,0.5,0.2,0.8,0.2c0.4,0.1,0.8,0.1,1.4,0.1
				c0.3,0,0.7,0,1-0.1c0.3-0.1,0.6-0.1,0.8-0.2s0.4-0.2,0.5-0.4C109,19.3,109.1,19.1,109.1,18.9z M108.4,12.5c0-0.6-0.2-1.1-0.5-1.4
				s-0.9-0.5-1.6-0.5c-0.7,0-1.2,0.2-1.5,0.6s-0.5,0.8-0.5,1.4s0.2,1,0.6,1.4s0.9,0.5,1.6,0.5c0.3,0,0.6-0.1,0.9-0.2
				c0.2-0.1,0.4-0.2,0.6-0.4c0.2-0.2,0.3-0.4,0.4-0.6C108.4,13,108.4,12.8,108.4,12.5z"/>
			<path class="st0" d="M111.4,11.3c0.3-0.5,0.6-0.9,1.2-1.2c0.5-0.3,1.2-0.5,1.9-0.5c0.4,0,0.7,0.1,1,0.1s0.6,0.2,0.9,0.4
				s0.5,0.4,0.7,0.8c0.2,0.3,0.3,0.7,0.3,1.2v4.2c0,0.5,0,0.8,0.1,1.1s0.1,0.5,0.1,0.7h-1.2l-0.1-1.2c-0.3,0.3-0.7,0.6-1.1,0.9
				c-0.5,0.3-1,0.4-1.6,0.4c-0.3,0-0.6-0.1-0.9-0.1c-0.3-0.1-0.5-0.2-0.8-0.4s-0.4-0.4-0.5-0.7c-0.1-0.3-0.2-0.6-0.2-1
				c0-0.5,0.1-0.9,0.3-1.2c0.2-0.3,0.5-0.7,0.9-0.9c0.4-0.3,0.9-0.5,1.6-0.7c0.6-0.2,1.4-0.4,2.4-0.5v-0.4c0-0.6-0.2-0.9-0.5-1.2
				c-0.3-0.2-0.7-0.3-1.2-0.3c-0.3,0-0.6,0-0.8,0.1c-0.2,0.1-0.4,0.2-0.6,0.3s-0.3,0.3-0.4,0.4s-0.2,0.3-0.2,0.4L111.4,11.3z
				 M116.3,13.5c-2.6,0.5-3.9,1.2-3.9,2.4c0,0.2,0,0.4,0.1,0.5c0.1,0.2,0.2,0.3,0.3,0.4s0.3,0.2,0.4,0.3c0.2,0.1,0.3,0.1,0.5,0.1
				c0.2,0,0.4,0,0.7-0.1c0.2-0.1,0.5-0.2,0.7-0.3c0.2-0.1,0.4-0.3,0.6-0.4c0.2-0.2,0.4-0.3,0.6-0.5L116.3,13.5L116.3,13.5z"/>
			<path class="st0" d="M121.1,9.7v1.1h0c0.3-0.4,0.7-0.7,1.1-0.9s0.9-0.4,1.3-0.4c0.3,0,0.6,0,0.9,0.1c0.3,0.1,0.5,0.2,0.8,0.4
				c0.2,0.2,0.4,0.4,0.5,0.8s0.2,0.7,0.2,1.1v6h-1.1v-6c0-0.6-0.1-0.9-0.4-1.2s-0.6-0.3-1-0.3c-0.2,0-0.4,0-0.7,0.1
				c-0.2,0.1-0.4,0.2-0.7,0.3s-0.4,0.3-0.6,0.4s-0.3,0.3-0.5,0.4V18h-1.1V9.7L121.1,9.7L121.1,9.7z"/>
			<path class="st0" d="M130.2,6.3v1.4H129V6.3H130.2z M129,9.7h1.1V18H129V9.7z"/>
			<path class="st0" d="M138.4,18h-6.1v-0.8l4.5-6.5h-4.1v-1h5.6v0.8l-4.5,6.5h4.6V18z"/>
			<path class="st0" d="M139.8,11.3c0.3-0.5,0.7-0.9,1.2-1.2s1.2-0.5,1.9-0.5c0.4,0,0.7,0.1,1,0.1s0.6,0.2,0.9,0.4s0.5,0.4,0.7,0.8
				c0.2,0.3,0.3,0.7,0.3,1.2v4.2c0,0.5,0,0.8,0.1,1.1s0.1,0.5,0.1,0.7h-1.2l-0.1-1.2c-0.3,0.3-0.7,0.6-1.1,0.9
				c-0.5,0.3-1,0.4-1.6,0.4c-0.3,0-0.6-0.1-0.9-0.1c-0.3-0.1-0.5-0.2-0.8-0.4s-0.4-0.4-0.5-0.7c-0.1-0.3-0.2-0.6-0.2-1
				c0-0.5,0.1-0.9,0.3-1.2c0.2-0.3,0.5-0.7,0.9-0.9c0.4-0.3,0.9-0.5,1.6-0.7c0.6-0.2,1.4-0.4,2.4-0.5v-0.4c0-0.6-0.2-0.9-0.5-1.2
				c-0.3-0.2-0.7-0.3-1.2-0.3c-0.3,0-0.6,0-0.8,0.1c-0.2,0.1-0.4,0.2-0.6,0.3c-0.2,0.1-0.3,0.3-0.4,0.4s-0.2,0.3-0.2,0.4L139.8,11.3
				z M144.6,13.5c-2.6,0.5-3.9,1.2-3.9,2.4c0,0.2,0,0.4,0.1,0.5s0.2,0.3,0.3,0.4s0.3,0.2,0.4,0.3c0.2,0.1,0.3,0.1,0.5,0.1
				c0.2,0,0.4,0,0.6-0.1s0.5-0.2,0.7-0.3c0.2-0.1,0.4-0.3,0.6-0.4c0.2-0.2,0.4-0.3,0.6-0.5L144.6,13.5L144.6,13.5z"/>
			<path class="st0" d="M152.9,12.2c-0.2-0.5-0.4-0.9-0.7-1.2c-0.3-0.3-0.7-0.4-1.2-0.4c-0.7,0-1.3,0.3-1.7,0.9s-0.6,1.4-0.6,2.5
				s0.2,1.9,0.6,2.5s0.9,0.9,1.7,0.9c0.3,0,0.5,0,0.7-0.1s0.4-0.1,0.6-0.2c0.2-0.1,0.4-0.3,0.5-0.5c0.2-0.2,0.3-0.4,0.5-0.7l0.9,0.4
				c-0.2,0.3-0.4,0.7-0.6,0.9s-0.4,0.5-0.7,0.7c-0.2,0.2-0.5,0.3-0.8,0.4c-0.3,0.1-0.7,0.1-1.1,0.1c-0.5,0-1-0.1-1.4-0.3
				c-0.4-0.2-0.8-0.5-1.1-0.8c-0.3-0.4-0.5-0.8-0.7-1.4c-0.2-0.5-0.2-1.1-0.2-1.8c0-0.7,0.1-1.3,0.2-1.8c0.2-0.5,0.4-1,0.7-1.4
				c0.3-0.4,0.6-0.7,1.1-0.8c0.4-0.2,0.9-0.3,1.4-0.3c0.4,0,0.8,0.1,1.1,0.2c0.3,0.1,0.6,0.3,0.8,0.5c0.2,0.2,0.4,0.4,0.6,0.7
				c0.2,0.3,0.3,0.6,0.5,0.9L152.9,12.2z"/>
			<path class="st0" d="M157.7,6.3v1.4h-1.1V6.3H157.7z M156.5,9.7h1.1V18h-1.1V9.7z"/>
			<path class="st0" d="M166.7,13.9c0,0.6-0.1,1.2-0.2,1.7c-0.1,0.5-0.4,1-0.6,1.4s-0.6,0.7-1.1,0.9c-0.4,0.2-0.9,0.3-1.5,0.3
				c-0.6,0-1.1-0.1-1.5-0.3c-0.4-0.2-0.8-0.5-1.1-0.9s-0.5-0.8-0.6-1.4c-0.1-0.5-0.2-1.1-0.2-1.7c0-0.6,0.1-1.2,0.2-1.7
				c0.1-0.5,0.4-1,0.6-1.4s0.6-0.7,1.1-0.9c0.4-0.2,0.9-0.3,1.5-0.3s1.1,0.1,1.5,0.3c0.4,0.2,0.8,0.5,1.1,0.9s0.5,0.8,0.6,1.4
				C166.6,12.7,166.7,13.3,166.7,13.9z M165.6,13.9c0-1.1-0.2-1.9-0.6-2.5c-0.4-0.6-0.9-0.8-1.6-0.8c-0.7,0-1.2,0.3-1.6,0.8
				s-0.6,1.4-0.6,2.5s0.2,1.9,0.6,2.5c0.4,0.6,0.9,0.8,1.6,0.8s1.2-0.3,1.6-0.8C165.4,15.8,165.6,15,165.6,13.9z M165.4,6.5
				l-2.1,2.3h-1.1l1.4-2.3H165.4z"/>
			<path class="st0" d="M169.9,9.7v1.1h0c0.3-0.4,0.7-0.7,1.1-0.9s0.9-0.4,1.3-0.4c0.3,0,0.6,0,0.9,0.1c0.3,0.1,0.5,0.2,0.8,0.4
				c0.2,0.2,0.4,0.4,0.5,0.8c0.1,0.3,0.2,0.7,0.2,1.1v6h-1.1v-6c0-0.6-0.1-0.9-0.4-1.2s-0.6-0.3-1-0.3c-0.2,0-0.4,0-0.7,0.1
				c-0.2,0.1-0.4,0.2-0.6,0.3c-0.2,0.1-0.4,0.3-0.6,0.4s-0.3,0.3-0.5,0.4V18h-1.1V9.7L169.9,9.7L169.9,9.7z"/>
			<path class="st0" d="M89.8,23.6v11.5h-1.3V23.6H89.8z"/>
			<path class="st0" d="M94.4,26.9V28h0c0.3-0.4,0.7-0.7,1.1-0.9s0.9-0.4,1.3-0.4c0.3,0,0.6,0,0.9,0.1c0.3,0.1,0.5,0.2,0.8,0.4
				c0.2,0.2,0.4,0.4,0.5,0.8s0.2,0.7,0.2,1.1v6h-1.1v-6c0-0.6-0.1-0.9-0.4-1.2s-0.6-0.3-1-0.3c-0.2,0-0.4,0-0.7,0.1
				c-0.2,0.1-0.4,0.2-0.7,0.3s-0.4,0.3-0.6,0.4s-0.3,0.3-0.5,0.4v6.2h-1.1v-8.3L94.4,26.9L94.4,26.9z"/>
			<path class="st0" d="M102.4,26.9v-2.7h1.1v2.7h1.9v1h-1.9v5.9c0,0.2,0.1,0.3,0.2,0.4c0.1,0.1,0.4,0.1,0.7,0.1c0.2,0,0.4,0,0.5,0
				c0.2,0,0.3,0,0.5-0.1v0.9c-0.1,0-0.3,0.1-0.5,0.1c-0.2,0-0.5,0-0.9,0c-0.6,0-1.1-0.1-1.4-0.3s-0.4-0.6-0.4-1.1v-6.1H101v-1
				L102.4,26.9L102.4,26.9z"/>
			<path class="st0" d="M113.5,33.4c-0.1,0.2-0.3,0.5-0.5,0.7c-0.2,0.2-0.4,0.4-0.6,0.6c-0.2,0.2-0.6,0.3-0.9,0.4s-0.8,0.2-1.2,0.2
				s-0.9-0.1-1.4-0.2c-0.4-0.2-0.8-0.4-1.1-0.8s-0.6-0.8-0.8-1.3s-0.3-1.2-0.3-1.9c0-0.7,0.1-1.3,0.2-1.8c0.2-0.5,0.4-1,0.7-1.4
				c0.3-0.4,0.6-0.7,1.1-0.8c0.4-0.2,0.9-0.3,1.4-0.3c0.4,0,0.8,0.1,1.2,0.2c0.4,0.1,0.7,0.4,1,0.7c0.3,0.3,0.5,0.7,0.7,1.2
				c0.2,0.5,0.3,1.1,0.3,1.7v0.8h-5.4c0,0.5,0.1,0.9,0.2,1.2c0.1,0.4,0.3,0.7,0.5,1c0.2,0.3,0.5,0.5,0.8,0.6c0.3,0.2,0.6,0.2,1,0.2
				c0.5,0,1-0.1,1.4-0.4c0.4-0.2,0.7-0.6,0.9-1L113.5,33.4z M112.1,30.3c0-0.8-0.2-1.4-0.5-1.8s-0.8-0.7-1.5-0.7
				c-0.7,0-1.2,0.2-1.6,0.7c-0.4,0.5-0.6,1.1-0.6,1.8H112.1z"/>
			<path class="st0" d="M115.2,26.9h1.1v1.7h0c0.2-0.3,0.3-0.5,0.5-0.8s0.4-0.4,0.6-0.6c0.2-0.2,0.4-0.3,0.7-0.3
				c0.3-0.1,0.6-0.1,0.9-0.1v1.2c-0.7,0-1.3,0.3-1.7,0.7s-0.8,1.1-1,2v4.6h-1.1L115.2,26.9L115.2,26.9z"/>
			<path class="st0" d="M121.9,26.9V28h0c0.3-0.4,0.7-0.7,1.1-0.9s0.9-0.4,1.3-0.4c0.3,0,0.6,0,0.9,0.1c0.3,0.1,0.5,0.2,0.8,0.4
				c0.2,0.2,0.4,0.4,0.5,0.8c0.1,0.3,0.2,0.7,0.2,1.1v6h-1.1v-6c0-0.6-0.1-0.9-0.4-1.2s-0.6-0.3-1-0.3c-0.2,0-0.4,0-0.7,0.1
				c-0.2,0.1-0.4,0.2-0.6,0.3c-0.2,0.1-0.4,0.3-0.6,0.4s-0.3,0.3-0.5,0.4v6.2h-1.1v-8.3L121.9,26.9L121.9,26.9z"/>
			<path class="st0" d="M129.2,28.5c0.3-0.5,0.6-0.9,1.2-1.2c0.5-0.3,1.2-0.5,1.9-0.5c0.4,0,0.7,0.1,1,0.1s0.6,0.2,0.9,0.4
				s0.5,0.4,0.7,0.8c0.2,0.3,0.3,0.7,0.3,1.2v4.2c0,0.5,0,0.8,0.1,1.1s0.1,0.5,0.1,0.7h-1.2L134,34c-0.3,0.3-0.7,0.6-1.1,0.9
				c-0.5,0.3-1,0.4-1.6,0.4c-0.3,0-0.6-0.1-0.9-0.1c-0.3-0.1-0.5-0.2-0.8-0.4s-0.4-0.4-0.5-0.7c-0.1-0.3-0.2-0.6-0.2-1
				c0-0.5,0.1-0.9,0.3-1.2c0.2-0.3,0.5-0.7,0.9-0.9c0.4-0.3,0.9-0.5,1.6-0.7c0.6-0.2,1.4-0.4,2.4-0.5v-0.4c0-0.6-0.2-0.9-0.5-1.2
				c-0.3-0.2-0.7-0.3-1.2-0.3c-0.3,0-0.6,0-0.8,0.1c-0.2,0.1-0.4,0.2-0.6,0.3s-0.3,0.3-0.4,0.4s-0.2,0.3-0.2,0.4L129.2,28.5z
				 M134,30.7c-2.6,0.5-3.9,1.2-3.9,2.4c0,0.2,0,0.4,0.1,0.5c0.1,0.2,0.2,0.3,0.3,0.4s0.3,0.2,0.4,0.3c0.2,0.1,0.3,0.1,0.5,0.1
				c0.2,0,0.4,0,0.7-0.1c0.2-0.1,0.5-0.2,0.7-0.3c0.2-0.1,0.4-0.3,0.6-0.4c0.2-0.2,0.4-0.3,0.6-0.5L134,30.7L134,30.7z"/>
			<path class="st0" d="M142.2,29.4c-0.2-0.5-0.4-0.9-0.7-1.2c-0.3-0.3-0.7-0.4-1.2-0.4c-0.7,0-1.3,0.3-1.7,0.9S138,30,138,31
				s0.2,1.9,0.6,2.5s0.9,0.9,1.7,0.9c0.3,0,0.5,0,0.7-0.1s0.4-0.1,0.6-0.2c0.2-0.1,0.4-0.3,0.5-0.5c0.2-0.2,0.3-0.4,0.5-0.7l0.9,0.4
				c-0.2,0.3-0.4,0.7-0.6,0.9s-0.4,0.5-0.7,0.7c-0.2,0.2-0.5,0.3-0.8,0.4c-0.3,0.1-0.7,0.1-1.1,0.1c-0.5,0-1-0.1-1.4-0.3
				c-0.4-0.2-0.8-0.5-1.1-0.8c-0.3-0.4-0.5-0.8-0.7-1.4c-0.2-0.5-0.2-1.1-0.2-1.8c0-0.7,0.1-1.3,0.2-1.8c0.2-0.5,0.4-1,0.7-1.4
				c0.3-0.4,0.6-0.7,1.1-0.8c0.4-0.2,0.9-0.3,1.4-0.3c0.4,0,0.8,0.1,1.1,0.2c0.3,0.1,0.6,0.3,0.8,0.5c0.2,0.2,0.4,0.4,0.6,0.7
				c0.2,0.3,0.3,0.6,0.5,0.9L142.2,29.4z"/>
			<path class="st0" d="M147,23.5v1.4h-1.1v-1.4H147z M145.9,26.9h1.1v8.3h-1.1V26.9z"/>
			<path class="st0" d="M156.1,31c0,0.6-0.1,1.2-0.2,1.7c-0.1,0.5-0.4,1-0.6,1.4s-0.6,0.7-1.1,0.9c-0.4,0.2-0.9,0.3-1.5,0.3
				s-1.1-0.1-1.5-0.3c-0.4-0.2-0.8-0.5-1.1-0.9s-0.5-0.8-0.6-1.4c-0.1-0.5-0.2-1.1-0.2-1.7c0-0.6,0.1-1.2,0.2-1.7
				c0.1-0.5,0.4-1,0.6-1.4s0.6-0.7,1.1-0.9s0.9-0.3,1.5-0.3s1.1,0.1,1.5,0.3c0.4,0.2,0.8,0.5,1.1,0.9s0.5,0.8,0.6,1.4
				C156,29.9,156.1,30.4,156.1,31z M154.9,31c0-1.1-0.2-1.9-0.6-2.5c-0.4-0.6-0.9-0.8-1.6-0.8s-1.2,0.3-1.6,0.8s-0.6,1.4-0.6,2.5
				s0.2,1.9,0.6,2.5c0.4,0.6,0.9,0.8,1.6,0.8s1.2-0.3,1.6-0.8C154.7,32.9,154.9,32.1,154.9,31z"/>
			<path class="st0" d="M159.2,26.9V28h0c0.3-0.4,0.7-0.7,1.1-0.9s0.9-0.4,1.3-0.4c0.3,0,0.6,0,0.9,0.1c0.3,0.1,0.5,0.2,0.8,0.4
				c0.2,0.2,0.4,0.4,0.5,0.8s0.2,0.7,0.2,1.1v6h-1.1v-6c0-0.6-0.1-0.9-0.4-1.2s-0.6-0.3-1-0.3c-0.2,0-0.4,0-0.7,0.1
				c-0.2,0.1-0.4,0.2-0.7,0.3s-0.4,0.3-0.6,0.4s-0.3,0.3-0.5,0.4v6.2h-1.1v-8.3L159.2,26.9L159.2,26.9z"/>
			<path class="st0" d="M166.4,28.5c0.3-0.5,0.7-0.9,1.2-1.2s1.2-0.5,1.9-0.5c0.4,0,0.7,0.1,1,0.1s0.6,0.2,0.9,0.4s0.5,0.4,0.7,0.8
				c0.2,0.3,0.3,0.7,0.3,1.2v4.2c0,0.5,0,0.8,0.1,1.1s0.1,0.5,0.1,0.7h-1.2l-0.1-1.2c-0.3,0.3-0.7,0.6-1.1,0.9
				c-0.5,0.3-1,0.4-1.6,0.4c-0.3,0-0.6-0.1-0.9-0.1c-0.3-0.1-0.5-0.2-0.8-0.4s-0.4-0.4-0.5-0.7c-0.1-0.3-0.2-0.6-0.2-1
				c0-0.5,0.1-0.9,0.3-1.2c0.2-0.3,0.5-0.7,0.9-0.9c0.4-0.3,0.9-0.5,1.6-0.7c0.6-0.2,1.4-0.4,2.4-0.5v-0.4c0-0.6-0.2-0.9-0.5-1.2
				c-0.3-0.2-0.7-0.3-1.2-0.3c-0.3,0-0.6,0-0.8,0.1c-0.2,0.1-0.4,0.2-0.6,0.3c-0.2,0.1-0.3,0.3-0.4,0.4s-0.2,0.3-0.2,0.4L166.4,28.5
				z M171.3,30.7c-2.6,0.5-3.9,1.2-3.9,2.4c0,0.2,0,0.4,0.1,0.5c0.1,0.2,0.2,0.3,0.3,0.4s0.3,0.2,0.4,0.3c0.2,0.1,0.3,0.1,0.5,0.1
				c0.2,0,0.4,0,0.6-0.1s0.5-0.2,0.7-0.3c0.2-0.1,0.4-0.3,0.6-0.4c0.2-0.2,0.4-0.3,0.6-0.5L171.3,30.7L171.3,30.7z"/>
			<path class="st0" d="M176.3,23.6v11.5h-1.1V23.6H176.3z"/>
			<path class="st0" d="M94,40.8v9.7c0,0.3,0,0.6,0,0.9s0,0.6,0.1,0.9H93l-0.2-0.8c-0.2,0.3-0.5,0.5-0.9,0.7s-0.8,0.3-1.3,0.3
				c-0.4,0-0.8-0.1-1.2-0.2s-0.8-0.4-1.1-0.7c-0.3-0.3-0.6-0.8-0.8-1.3c-0.2-0.6-0.3-1.2-0.3-2.1c0-0.8,0.1-1.5,0.3-2s0.5-1,0.8-1.3
				c0.3-0.3,0.7-0.6,1.1-0.7c0.4-0.2,0.8-0.2,1.1-0.2c0.4,0,0.8,0.1,1.1,0.3c0.4,0.2,0.7,0.4,1,0.7l0.1,0v-4L94,40.8L94,40.8z
				 M92.9,46c-0.3-0.3-0.6-0.6-1-0.8c-0.4-0.2-0.7-0.3-1.1-0.3c-0.3,0-0.6,0.1-0.9,0.2s-0.5,0.3-0.7,0.6c-0.2,0.3-0.4,0.6-0.5,1.1
				c-0.1,0.4-0.2,1-0.2,1.6c0,1.1,0.2,1.9,0.6,2.4c0.4,0.6,1,0.8,1.7,0.8c0.4,0,0.7-0.1,1-0.3c0.3-0.2,0.7-0.5,1.1-0.9L92.9,46
				L92.9,46z"/>
			<path class="st0" d="M102.9,50.6c-0.1,0.2-0.3,0.5-0.5,0.7c-0.2,0.2-0.4,0.4-0.6,0.6c-0.2,0.2-0.6,0.3-0.9,0.4s-0.8,0.2-1.2,0.2
				s-0.9-0.1-1.4-0.2c-0.4-0.2-0.8-0.4-1.1-0.8s-0.6-0.8-0.8-1.3s-0.3-1.2-0.3-1.9c0-0.7,0.1-1.3,0.2-1.8c0.2-0.5,0.4-1,0.7-1.4
				c0.3-0.4,0.6-0.7,1.1-0.8c0.4-0.2,0.9-0.3,1.4-0.3c0.4,0,0.8,0.1,1.2,0.2c0.4,0.1,0.7,0.4,1,0.7c0.3,0.3,0.5,0.7,0.7,1.2
				c0.2,0.5,0.3,1.1,0.3,1.7v0.8h-5.4c0,0.5,0.1,0.9,0.2,1.2c0.1,0.4,0.3,0.7,0.5,1c0.2,0.3,0.5,0.5,0.8,0.6c0.3,0.2,0.6,0.2,1,0.2
				c0.5,0,1-0.1,1.4-0.4c0.4-0.2,0.7-0.6,0.9-1L102.9,50.6z M101.5,47.4c0-0.8-0.2-1.4-0.5-1.8s-0.8-0.7-1.5-0.7
				c-0.7,0-1.2,0.2-1.6,0.7c-0.4,0.5-0.6,1.1-0.6,1.8H101.5z"/>
			<path class="st0" d="M106.2,40.8v11.5h-1.1V40.8H106.2z"/>
			<path class="st0" d="M117.8,41.9v10.4h-1.3V41.9h-3.4v-1.1h8.2v1.1H117.8z"/>
			<path class="st0" d="M121.3,44h1.1v1.7h0c0.2-0.3,0.3-0.5,0.5-0.8s0.4-0.4,0.6-0.6c0.2-0.2,0.4-0.3,0.7-0.3
				c0.3-0.1,0.6-0.1,0.9-0.1v1.2c-0.7,0-1.3,0.3-1.7,0.7s-0.8,1.1-1,2v4.6h-1.1L121.3,44L121.3,44z"/>
			<path class="st0" d="M126.4,45.6c0.3-0.5,0.6-0.9,1.2-1.2c0.5-0.3,1.2-0.5,1.9-0.5c0.4,0,0.7,0.1,1,0.1s0.6,0.2,0.9,0.4
				s0.5,0.4,0.7,0.8c0.2,0.3,0.3,0.7,0.3,1.2v4.2c0,0.5,0,0.8,0.1,1.1s0.1,0.5,0.1,0.7h-1.2l-0.1-1.2c-0.3,0.3-0.7,0.6-1.1,0.9
				c-0.5,0.3-1,0.4-1.6,0.4c-0.3,0-0.6-0.1-0.9-0.1c-0.3-0.1-0.5-0.2-0.8-0.4s-0.4-0.4-0.5-0.7c-0.1-0.3-0.2-0.6-0.2-1
				c0-0.5,0.1-0.9,0.3-1.2c0.2-0.3,0.5-0.7,0.9-0.9c0.4-0.3,0.9-0.5,1.6-0.7c0.6-0.2,1.4-0.4,2.4-0.5v-0.4c0-0.6-0.2-0.9-0.5-1.2
				c-0.3-0.2-0.7-0.3-1.2-0.3c-0.3,0-0.6,0-0.8,0.1c-0.2,0.1-0.4,0.2-0.6,0.3c-0.2,0.1-0.3,0.3-0.4,0.4s-0.2,0.3-0.2,0.4L126.4,45.6
				z M131.2,47.9c-2.6,0.5-3.9,1.2-3.9,2.4c0,0.2,0,0.4,0.1,0.5c0.1,0.2,0.2,0.3,0.3,0.4s0.3,0.2,0.4,0.3c0.2,0.1,0.3,0.1,0.5,0.1
				c0.2,0,0.4,0,0.7-0.1c0.2-0.1,0.5-0.2,0.7-0.3c0.2-0.1,0.4-0.3,0.6-0.4c0.2-0.2,0.4-0.3,0.6-0.5L131.2,47.9L131.2,47.9z"/>
			<path class="st0" d="M136,40.8v4l0.1,0c0.3-0.3,0.7-0.5,1-0.7c0.4-0.2,0.8-0.3,1.1-0.3c0.4,0,0.7,0.1,1.1,0.2
				c0.4,0.2,0.8,0.4,1.1,0.7c0.3,0.3,0.6,0.8,0.8,1.3c0.2,0.6,0.3,1.2,0.3,2c0,0.8-0.1,1.5-0.3,2.1c-0.2,0.6-0.5,1-0.8,1.3
				s-0.7,0.6-1.1,0.7s-0.8,0.2-1.1,0.2c-0.5,0-0.9-0.1-1.3-0.3s-0.7-0.4-1.1-0.8l-0.2,0.9h-0.8c0.1-0.3,0.1-0.6,0.1-0.9s0-0.6,0-0.9
				v-9.7L136,40.8L136,40.8z M136,50.4c0.4,0.4,0.8,0.7,1.1,0.9c0.3,0.2,0.6,0.3,1,0.3c0.7,0,1.3-0.3,1.7-0.8s0.6-1.4,0.6-2.4
				c0-0.6-0.1-1.2-0.2-1.6c-0.1-0.4-0.3-0.8-0.5-1.1c-0.2-0.3-0.5-0.5-0.8-0.6c-0.3-0.1-0.6-0.2-0.9-0.2c-0.3,0-0.7,0.1-1.1,0.3
				c-0.4,0.2-0.7,0.5-1,0.8L136,50.4L136,50.4z"/>
			<path class="st0" d="M143.2,45.6c0.3-0.5,0.7-0.9,1.2-1.2s1.2-0.5,1.9-0.5c0.4,0,0.7,0.1,1,0.1s0.6,0.2,0.9,0.4s0.5,0.4,0.7,0.8
				c0.2,0.3,0.3,0.7,0.3,1.2v4.2c0,0.5,0,0.8,0.1,1.1s0.1,0.5,0.1,0.7h-1.2l-0.1-1.2c-0.3,0.3-0.7,0.6-1.1,0.9
				c-0.5,0.3-1,0.4-1.6,0.4c-0.3,0-0.6-0.1-0.9-0.1c-0.3-0.1-0.5-0.2-0.8-0.4s-0.4-0.4-0.5-0.7c-0.1-0.3-0.2-0.6-0.2-1
				c0-0.5,0.1-0.9,0.3-1.2c0.2-0.3,0.5-0.7,0.9-0.9c0.4-0.3,0.9-0.5,1.6-0.7s1.4-0.4,2.4-0.5v-0.4c0-0.6-0.2-0.9-0.5-1.2
				c-0.3-0.2-0.7-0.3-1.2-0.3c-0.3,0-0.6,0-0.8,0.1c-0.2,0.1-0.4,0.2-0.6,0.3s-0.3,0.3-0.4,0.4s-0.2,0.3-0.2,0.4L143.2,45.6z
				 M148.1,47.9c-2.6,0.5-3.9,1.2-3.9,2.4c0,0.2,0,0.4,0.1,0.5c0.1,0.2,0.2,0.3,0.3,0.4s0.3,0.2,0.4,0.3c0.2,0.1,0.3,0.1,0.5,0.1
				c0.2,0,0.4,0,0.6-0.1s0.5-0.2,0.7-0.3c0.2-0.1,0.4-0.3,0.6-0.4c0.2-0.2,0.4-0.3,0.6-0.5L148.1,47.9L148.1,47.9z"/>
			<path class="st0" d="M153.3,44v9.6c0,0.5-0.1,0.9-0.5,1.2c-0.3,0.3-0.7,0.5-1.2,0.5c-0.2,0-0.4,0-0.5-0.1c-0.2,0-0.3-0.1-0.4-0.1
				v-0.9c0.1,0,0.2,0.1,0.3,0.1c0.1,0,0.2,0,0.3,0c0.3,0,0.6-0.1,0.7-0.2s0.2-0.3,0.2-0.7V44L153.3,44L153.3,44z M153.3,42h-1.1
				v-1.4h1.1V42z"/>
			<path class="st0" d="M162.1,48.2c0,0.6-0.1,1.2-0.2,1.7c-0.1,0.5-0.4,1-0.6,1.4s-0.6,0.7-1.1,0.9c-0.4,0.2-0.9,0.3-1.5,0.3
				s-1.1-0.1-1.5-0.3c-0.4-0.2-0.8-0.5-1.1-0.9s-0.5-0.8-0.6-1.4c-0.1-0.5-0.2-1.1-0.2-1.7s0.1-1.2,0.2-1.7c0.1-0.5,0.4-1,0.6-1.4
				s0.6-0.7,1.1-0.9c0.4-0.2,0.9-0.3,1.5-0.3s1.1,0.1,1.5,0.3c0.4,0.2,0.8,0.5,1.1,0.9s0.5,0.8,0.6,1.4
				C162.1,47,162.1,47.6,162.1,48.2z M161,48.2c0-1.1-0.2-1.9-0.6-2.5c-0.4-0.6-0.9-0.8-1.6-0.8s-1.2,0.3-1.6,0.8s-0.6,1.4-0.6,2.5
				s0.2,1.9,0.6,2.5c0.4,0.6,0.9,0.8,1.6,0.8s1.2-0.3,1.6-0.8C160.8,50.1,161,49.3,161,48.2z"/>
		</g>
		<g>
			<g>
				<path class="st1" d="M35.3,7.4L34,2.3l-3.5,0.8L30.3,6L27.6,7l-1.8-2l-3,1.7l0.8,2.8l-2.1,2l-2.5-1.2L16.9,13l1.5,2.2l-1.2,2.4
					l-2.8-0.3L13,20.7l2.2,1.5l-0.5,2.9l-2.6,0.3L12,29.2l2.6,0.7l0.2,3.2l-2.1,0.9l0.8,4l5.1-1.5C17,31.4,16.5,26,18.5,21
					C21.2,14,27.5,8.8,35.3,7.4L35.3,7.4z"/>
			</g>
			<g>
				<path class="st1" d="M40.1,7.5l1.3-5.1l3.6,0.8l0.1,2.9l2.7,1.1l1.8-2l3.1,2l-0.9,2.5l2.3,1.9l2.4-1.1l2.2,2.9L57,15.3l1.9,2.7
					l2.5-0.3l1.1,3.4l-2.1,1.3l0.3,2.8l2.8,0.7l-0.1,3.7L60.9,30l-0.2,2.9l2.3,1.3l-0.9,3.5l-5.2-1.1c1.6-5,2.1-10.4,0.2-15.4
					C54.2,14.1,47.9,8.9,40.1,7.5L40.1,7.5z"/>
			</g>
			<g>
				<path class="st1" d="M20.9,40.4l-3.8,3.8l2.7,2.7l2.3-1.3l2.3,1.6L23.7,50l3.2,1.5l1.7-2.1l2.9,1.1l0,2.6l3.8,0.4l0.7-2.2l3.2,0
					l0.7,2.2l3.7-0.4l0.1-2.5l3.2-1l1.5,2l3.3-1.8l-0.8-2.3l2.5-1.9l2.2,1.4l2.9-2.6l-3.9-3.8c-4.3,5.1-10.5,8.2-17.1,8.1
					C30.5,48.4,25.2,45.4,20.9,40.4L20.9,40.4z"/>
			</g>
			<g>
				<path class="st1" d="M15.8,5.4C15.9,5.1,17.7,2,19,1.2s4.3-0.5,5.9-1.2c-0.8,0.7-2.4,2.4-3.6,3.2C19.5,4.2,18,4.2,15.8,5.4
					L15.8,5.4z"/>
			</g>
			<g>
				<path class="st1" d="M9.7,12.1c0.6-1.4,0.7-2.2,0.9-3.3c0.4-2.4,0.8-3.5,2.6-5.1c1.9-1.6,3.8-2.9,4-2.8
					c-0.9,1.4-1.6,3.1-2.6,4.8c-0.5,1-1.5,1.9-2.3,2.7c1-1,2.3-1.8,3.7-2.3c2-0.7,3.8-0.9,4.4-1.3c-0.9,1.2-1.7,2.1-3,3.3
					c-1.5,1.4-2.5,1.5-5.2,2.5C10.6,11,9.9,11.9,9.7,12.1L9.7,12.1z"/>
			</g>
			<g>
				<path class="st1" d="M10.1,6.1c0,0-1,3-1.1,4.5c-0.1,1.5-0.3,2.1-0.9,4.3c1-1.2,0.7-0.9,2-1.9c1.5-1.1,3.4-1.2,4.4-2.2
					c-0.3,0.6-2.5,5-5.2,6.7c-2.7,1.6-2.8,2-3.5,2.8C6,17.5,5,15.5,5.2,13.5c0.1-1,0.5-1.9,1-2.8C7.2,8.7,10,6,10.1,6.1L10.1,6.1z"
					/>
			</g>
			<g>
				<path class="st1" d="M4.1,14.3c-0.1,2,0,3.5,0.4,5.2C4.7,20.7,4.9,22,5,23.7c0.3-1.1,1.6-2.5,1.9-2.8c2.4-2.2,1.9-1.7,4.1-3.8
					c-0.1,0.5-1.6,5.4-2.5,6.9S6,26.7,5.1,28.1c-0.8,1.4-0.7,2.2-0.9,2.8C4,30.2,4,29.5,3.3,28.1c-0.7-1.4-1.7-3.9-1.7-5.7
					C1.6,18.7,3.7,14.8,4.1,14.3L4.1,14.3z"/>
			</g>
			<g>
				<path class="st1" d="M0.6,24.9c0,0,0.4,1.4,0.7,2.4s3.1,5.3,3.3,6.7c0.2-1,0.3-3,1.2-4.3s2.6-3.7,3.4-5.1c0,0.6-0.2,6-0.9,8
					c-0.4,1.2-2.5,4.2-1.9,8.3c-0.7-0.9-0.8-1.1-2.7-2.8c-2-1.7-2.4-2.5-3.1-4.5C-0.4,30.5,0.1,28,0.6,24.9L0.6,24.9z"/>
			</g>
			<g>
				<path class="st1" d="M9,33.7c0,0,1.4,3.5,1.4,6.3c0,2.8-0.5,5.8-0.2,7.2c0.3,1.4,1.1,2.4,1.5,2.9c-0.9-0.7-1.3-0.9-3-1.6
					s-2.6-0.8-4.8-3.3S1,38,1,36.9c0.2,0.3,1.3,2.9,3.5,4.3c2.2,1.4,2.8,2.9,3.4,3.2c-0.2-0.9-0.9-1.6-0.4-4.8
					C7.8,38.2,9.1,33.8,9,33.7L9,33.7z"/>
			</g>
			<g>
				<path class="st1" d="M11.6,42c0,0-0.3,4.3,0.3,6c0.6,1.8,1.6,3.9,2.3,4.5c0.7,0.6-1.5-1.3-3.3-1.7c-1.9-0.4-4.7-1.7-5.4-2.3
					C5,48,6.3,50.1,7.7,51.9c0.8,1,1.7,1.8,2.2,2.3c1.5,1.2,3.3,2.6,6.2,2.9c2.9,0.3,7.3-0.1,8.2-1c-0.4-0.1-3.2,0.6-5.1-0.6
					c-1.8-1.1-2.5-4.8-3.4-7.3c-0.5-1.6-1.3-2.1-2.5-3.6C12,43,11.7,42.1,11.6,42L11.6,42z"/>
			</g>
			<g>
				<path class="st1" d="M13.7,57.8c0,0,2.8,1.3,6.9,0.7c4.1-0.6,6.6-1.7,8.1-2c1.3-0.2,3.3-0.4,5.2-0.3c3.6,0.1,5.8,1.6,8.3,3.3
					c2.8,1.9,3.1,2.9,2.9,3l-1,0.5c0,0-0.3-0.5-0.7-0.9c-3.8-4-5.3-5.1-8.5-5c-1.7,0.1-3.8,1.1-5.5,2.5C27.7,60.9,25,62,22.7,62
					c-2.3,0-4.5-0.8-6-1.7C15.2,59.3,13.7,57.8,13.7,57.8L13.7,57.8z"/>
			</g>
			<g>
				<path class="st1" d="M61.9,57.8c0,0-2.8,1.3-6.9,0.7c-4.1-0.6-6.6-1.7-8.1-2c-1.3-0.2-3.3-0.4-5.2-0.3c-3.6,0.1-5.8,1.6-8.3,3.3
					c-2.8,1.9-3.1,2.9-2.9,3l1,0.5c0,0,0.3-0.5,0.7-0.9c3.8-4,5.3-5.1,8.5-5c1.7,0.1,3.8,1.1,5.5,2.5c1.7,1.4,4.3,2.5,6.6,2.5
					s4.5-0.8,6-1.7C60.3,59.3,61.9,57.8,61.9,57.8L61.9,57.8z"/>
			</g>
			<g>
				<path class="st1" d="M59.7,5.4c-0.1-0.3-1.9-3.4-3.2-4.2S52.2,0.6,50.5,0c0.8,0.7,2.4,2.4,3.6,3.2C56,4.2,57.5,4.2,59.7,5.4
					L59.7,5.4z"/>
			</g>
			<g>
				<path class="st1" d="M65.8,12.1c-0.6-1.4-0.7-2.2-0.9-3.3c-0.4-2.4-0.8-3.5-2.6-5.1c-1.9-1.6-3.8-2.9-4-2.8
					c0.9,1.4,1.6,3.1,2.6,4.8c0.5,1,1.4,1.9,2.3,2.7c-1-1-2.3-1.8-3.7-2.3c-2-0.7-3.8-0.9-4.4-1.3c0.9,1.2,1.7,2.1,3,3.3
					c1.6,1.4,2.5,1.5,5.2,2.5C64.9,11,65.5,11.9,65.8,12.1L65.8,12.1z"/>
			</g>
			<g>
				<path class="st1" d="M65.4,6.1c0,0,1,3,1.1,4.5c0.1,1.5,0.3,2.1,0.9,4.3c-1-1.2-0.7-0.9-2-1.9c-1.5-1.1-3.4-1.2-4.4-2.2
					c0.3,0.6,2.5,5,5.2,6.7c2.7,1.6,2.8,2,3.5,2.8c-0.2-2.7,0.8-4.7,0.6-6.8c-0.1-1-0.5-1.9-1-2.8C68.3,8.7,65.5,6,65.4,6.1
					L65.4,6.1z"/>
			</g>
			<g>
				<path class="st1" d="M71.4,14.3c0.1,2,0,3.5-0.4,5.2c-0.3,1.2-0.4,2.5-0.5,4.2c-0.3-1.1-1.6-2.5-1.9-2.8
					c-2.4-2.2-1.9-1.7-4.1-3.8c0.1,0.5,1.6,5.4,2.5,6.9c0.9,1.5,2.5,2.7,3.3,4.1c0.8,1.4,0.7,2.2,0.9,2.8c0.2-0.7,0.2-1.4,0.9-2.8
					c0.7-1.4,1.7-3.9,1.7-5.7C73.9,18.7,71.8,14.8,71.4,14.3L71.4,14.3z"/>
			</g>
			<g>
				<path class="st1" d="M74.9,24.9c0,0-0.4,1.4-0.7,2.4s-3.1,5.3-3.3,6.7c-0.2-1-0.3-3-1.2-4.3s-2.6-3.7-3.4-5.1c0,0.6,0.2,6,0.9,8
					c0.4,1.2,2.5,4.2,1.9,8.3c0.7-0.9,0.8-1.1,2.7-2.8c2-1.7,2.4-2.5,3.1-4.5C75.9,30.5,75.4,28,74.9,24.9L74.9,24.9z"/>
			</g>
			<g>
				<path class="st1" d="M66.4,33.7c0,0-1.4,3.5-1.4,6.3c-0.1,2.8,0.5,5.8,0.2,7.2c-0.3,1.4-1.1,2.4-1.5,2.9c0.9-0.7,1.3-0.9,3-1.6
					s2.6-0.8,4.8-3.3c2.2-2.5,2.8-7.2,2.8-8.3c-0.2,0.3-1.3,2.9-3.5,4.3c-2.2,1.4-2.8,2.9-3.4,3.2c0.2-0.9,0.9-1.6,0.4-4.8
					C67.7,38.2,66.4,33.8,66.4,33.7L66.4,33.7z"/>
			</g>
			<g>
				<path class="st1" d="M63.9,42c0,0,0.3,4.3-0.3,6C63,49.8,62,52,61.2,52.5c-0.7,0.6,1.4-1.3,3.4-1.7c1.9-0.4,4.7-1.7,5.4-2.3
					c0.5-0.4-0.8,1.6-2.2,3.4c-0.8,1-1.7,1.8-2.2,2.3c-1.5,1.2-3.3,2.6-6.2,2.9s-7.3-0.1-8.2-1c0.4-0.1,3.2,0.6,5.1-0.6
					c1.8-1.1,2.6-4.8,3.4-7.3c0.5-1.6,1.3-2.1,2.5-3.6C63.4,43,63.8,42.1,63.9,42L63.9,42z"/>
			</g>
			<g>
				<path class="st1" d="M32.9,14l8.1,0v1.5c-0.4,0-1.1,0-1.5,0c-0.8,0.1-0.9,0.8-0.9,1.4l0.1,21.1v1.3c0,0.3,0.2,0.7,0.7,0.8l1.7,0
					v1.4h-8.2v-1.4c0.6,0,2,0.1,2.4-0.2c0.1-0.1,0.2-0.3,0.2-0.7l0-22.7c0-0.5-0.1-0.9-0.7-1.1c-0.3-0.1-0.9-0.1-1.9-0.1V14L32.9,14
					z"/>
			</g>
			<g>
				<path class="st1" d="M53,18.4l0.1,0.1c-0.1,0.8,0,3.9,0,5.9l-0.1,0.1h-0.9L52,24.4c0.1-3.9-1.2-5-3.8-5l0,15.7
					c0,0.3,0,1,0.3,1.1c0.3,0.1,1.2,0,1.4,0.1v1l-6.6,0l0-1c0.1,0,1.2,0.1,1.5-0.1c0.2-0.2,0.1-0.5,0.1-0.7l0-16
					c-3.6,0.1-3.8,2.2-3.8,5L41,24.5h-0.8l-0.1-0.1l0-6L53,18.4L53,18.4z"/>
			</g>
			<g>
				<path class="st1" d="M20.4,27.9c0-4.9,1.9-9.8,7.1-9.7c2,0.1,3.6,0.8,4.8,2.6c1.2,1.7,1.7,3.9,1.8,6.6
					c0.3,4.7-1.7,10.3-7.2,10.1C21.5,37.2,20.5,31.8,20.4,27.9L20.4,27.9z M23.5,27.6c0,2.8,0.1,9.1,4.1,8.7c4-0.4,3.6-6.2,3.6-8.7
					c0-2.6-0.2-8.4-4-8.3C23.3,19.5,23.5,25.2,23.5,27.6L23.5,27.6z"/>
			</g>
		</g>
	</g>
</g>
</svg>
